# xmcd
#
# Track frame offsets:
#	150
#	2651
#	22493
#	42985
#	63219
#	85141
#	106245
#	144526
#	166205
#	190635
#	214257
#	236307
#
# Disc length: 3663 seconds
#
# Revision: 0
# Processed by: cddbd v1.5.2PL0 Copyright (c) Steve Scherf et al.
# Submitted via: EasyCDDAExtractor 2010.6.0.0
#
DISCID=990e4d0c
DTITLE=Madison Street Family - First Meeting
DYEAR=2012
DGENRE=Rhythmic Soul
TTITLE0=Intro
TTITLE1=Freedom In The Groove
TTITLE2=Brand New Day
TTITLE3=Love Is Not A Game
TTITLE4=Soul Revolution
TTITLE5=Without You
TTITLE6=No More War
TTITLE7=Since I Met You
TTITLE8=First Meeting
TTITLE9=All I Need
TTITLE10=Party Time
TTITLE11=Music Is A Weapon
EXTD=
EXTT0=
EXTT1=
EXTT2=
EXTT3=
EXTT4=
EXTT5=
EXTT6=
EXTT7=
EXTT8=
EXTT9=
EXTT10=
EXTT11=
PLAYORDER=
